<svg width="16" height="16" viewBox="0 0 16 16" fill="none" xmlns="http://www.w3.org/2000/svg">
<path d="M14.2463 12.2979L9.30234 2.40452C9.18122 2.16317 8.99538 1.96025 8.76557 1.81846C8.53576 1.67666 8.27104 1.60156 8.00101 1.60156C7.73097 1.60156 7.46626 1.67666 7.23645 1.81846C7.00664 1.96025 6.82079 2.16317 6.69967 2.40452L1.75567 12.2979C1.6445 12.5194 1.59194 12.7657 1.60301 13.0133C1.61408 13.2609 1.68841 13.5016 1.81891 13.7123C1.94941 13.923 2.13173 14.0968 2.34847 14.2171C2.56521 14.3373 2.80915 14.4 3.05701 14.3992H12.945C13.1929 14.4 13.4368 14.3373 13.6535 14.2171C13.8703 14.0968 14.0526 13.923 14.1831 13.7123C14.3136 13.5016 14.3879 13.2609 14.399 13.0133C14.4101 12.7657 14.3575 12.5194 14.2463 12.2979ZM8.00101 11.7325C7.89552 11.7325 7.79241 11.7012 7.7047 11.6426C7.617 11.584 7.54864 11.5007 7.50827 11.4033C7.46791 11.3058 7.45734 11.1986 7.47792 11.0951C7.4985 10.9917 7.5493 10.8966 7.62388 10.8221C7.69847 10.7475 7.7935 10.6967 7.89696 10.6761C8.00042 10.6555 8.10765 10.6661 8.20511 10.7064C8.30256 10.7468 8.38585 10.8152 8.44446 10.9029C8.50306 10.9906 8.53434 11.0937 8.53434 11.1992C8.53434 11.3406 8.47815 11.4763 8.37813 11.5763C8.27811 11.6763 8.14246 11.7325 8.00101 11.7325ZM8.53434 9.06585C8.53434 9.2073 8.47815 9.34296 8.37813 9.44298C8.27811 9.54299 8.14246 9.59918 8.00101 9.59918C7.85956 9.59918 7.7239 9.54299 7.62388 9.44298C7.52386 9.34296 7.46767 9.2073 7.46767 9.06585V6.39918C7.46767 6.25774 7.52386 6.12208 7.62388 6.02206C7.7239 5.92204 7.85956 5.86585 8.00101 5.86585C8.14246 5.86585 8.27811 5.92204 8.37813 6.02206C8.47815 6.12208 8.53434 6.25774 8.53434 6.39918V9.06585Z" fill="white"/>
</svg>
