<svg width="28" height="24" viewBox="0 0 28 24" fill="none" xmlns="http://www.w3.org/2000/svg">
<path d="M20.0991 16.9066L26.4953 13.2133C26.8343 13.0171 27.0439 12.6533 27.0439 12.2628V4.87617C27.0439 4.48569 26.8343 4.12188 26.4953 3.92569L20.0991 0.232367C19.76 0.0361764 19.3391 0.0380812 19.0019 0.232367L12.6057 3.92569C12.2667 4.12188 12.0572 4.48569 12.0572 4.87617V18.0762L7.57145 20.6647L3.08574 18.0762V12.8971L7.57145 10.3086L10.5295 12.0171V8.54284L8.12003 7.15045C7.95431 7.05522 7.76383 7.00379 7.57145 7.00379C7.37907 7.00379 7.1886 7.05522 7.02288 7.15045L0.626696 10.8438C0.287648 11.04 0.078125 11.4038 0.078125 11.7943V19.1809C0.078125 19.5714 0.287648 19.9352 0.626696 20.1314L7.02288 23.8247C7.36193 24.019 7.78098 24.019 8.12003 23.8247L14.5162 20.1314C14.8553 19.9352 15.0648 19.5714 15.0648 19.1809V5.98093L15.1448 5.93522L19.5486 3.39236L24.0343 5.98093V11.16L19.5486 13.7485L16.5943 12.0438V15.5181L19 16.9066C19.3391 17.1009 19.76 17.1009 20.0972 16.9066H20.0991Z" fill="url(#paint0_linear_7042_143658)"/>
<defs>
<linearGradient id="paint0_linear_7042_143658" x1="-0.00949478" y1="19.9047" x2="25.8858" y2="4.87426" gradientUnits="userSpaceOnUse">
<stop stop-color="#A726C1"/>
<stop offset="0.88" stop-color="#803BDF"/>
<stop offset="1" stop-color="#7B3FE4"/>
</linearGradient>
</defs>
</svg>
