<svg width="236" height="30" viewBox="0 0 236 30" fill="none" xmlns="http://www.w3.org/2000/svg">
<g clip-path="url(#clip0_7042_143652)">
<path d="M20.0991 19.9066L26.4953 16.2133C26.8343 16.0171 27.0439 15.6533 27.0439 15.2628V7.87617C27.0439 7.48569 26.8343 7.12188 26.4953 6.92569L20.0991 3.23237C19.76 3.03618 19.3391 3.03808 19.0019 3.23237L12.6057 6.92569C12.2667 7.12188 12.0572 7.48569 12.0572 7.87617V21.0762L7.57145 23.6647L3.08574 21.0762V15.8971L7.57145 13.3085L10.5295 15.0171V11.5428L8.12002 10.1505C7.95431 10.0552 7.76383 10.0038 7.57145 10.0038C7.37907 10.0038 7.1886 10.0552 7.02288 10.1505L0.626696 13.8438C0.287648 14.04 0.078125 14.4038 0.078125 14.7943V22.1809C0.078125 22.5714 0.287648 22.9352 0.626696 23.1314L7.02288 26.8247C7.36193 27.019 7.78098 27.019 8.12002 26.8247L14.5162 23.1314C14.8553 22.9352 15.0648 22.5714 15.0648 22.1809V8.98093L15.1448 8.93522L19.5486 6.39236L24.0343 8.98093V14.16L19.5486 16.7486L16.5943 15.0438V18.5181L19 19.9066C19.3391 20.1009 19.76 20.1009 20.0972 19.9066H20.0991Z" fill="url(#paint0_linear_7042_143652)"/>
<path d="M34.0938 23.7764V8.72115H36.3337L36.5471 9.93638H36.6538C37.2938 9.104 38.3814 8.50781 39.8957 8.50781C42.6671 8.50781 44.8861 10.7688 44.8861 14.1154C44.8861 17.4621 42.669 19.7231 39.8957 19.7231C38.4023 19.7231 37.3585 19.104 36.8042 18.4011H36.6976V23.7745H34.0957L34.0938 23.7764ZM42.2823 14.1173C42.2823 12.1554 41.0233 10.9192 39.488 10.9192C37.9528 10.9192 36.6937 12.1554 36.6937 14.1173C36.6937 16.0792 37.9528 17.3154 39.488 17.3154C41.0233 17.3154 42.2823 16.0792 42.2823 14.1173Z" fill="#F7F5F4"/>
<path d="M46.207 14.1154C46.207 10.8526 48.5518 8.50781 51.687 8.50781C54.8223 8.50781 57.167 10.8526 57.167 14.1154C57.167 17.3783 54.8223 19.7231 51.687 19.7231C48.5518 19.7231 46.207 17.3554 46.207 14.1154ZM54.5442 14.1154C54.5442 12.1954 53.2642 10.9173 51.687 10.9173C50.1099 10.9173 48.8089 12.1973 48.8089 14.1154C48.8089 16.0335 50.1099 17.2926 51.687 17.2926C53.2642 17.2926 54.5442 16.0354 54.5442 14.1154Z" fill="#F7F5F4"/>
<path d="M59.0508 19.5057V4.57812H61.6527V19.5057H59.0508Z" fill="#F7F5F4"/>
<path d="M71.3133 8.71875H74.0847L69.3933 21.833C68.9247 23.134 68.2847 23.774 66.599 23.774H64.0828V21.3645H66.2161C66.6009 21.3645 66.8123 21.1721 66.9418 20.8521L67.1971 20.1492L62.8047 8.71875H65.5761L68.3704 16.2045H68.7971L71.3133 8.71875Z" fill="#F7F5F4"/>
<path d="M74.5817 20.045H77.2255C77.3322 20.7478 78.0351 21.7078 79.6998 21.7078C81.256 21.7078 82.2808 20.7269 82.2808 19.2335V17.7192H82.1741C81.5989 18.3383 80.5322 18.8926 79.1665 18.8926C76.3951 18.8926 74.2617 16.7592 74.2617 13.6888C74.2617 10.6183 76.3951 8.50781 79.1665 8.50781C80.5951 8.50781 81.6408 9.08305 82.3017 9.89448H82.4084L82.6217 8.72115H84.8827V19.2335C84.8827 22.0907 82.9627 23.9897 79.6998 23.9897C76.0541 23.9897 74.6465 21.6011 74.5817 20.045ZM82.2808 13.6907C82.2808 12.0069 81.0865 10.8335 79.5722 10.8335C78.0579 10.8335 76.8846 12.0069 76.8846 13.6907C76.8846 15.3745 78.0789 16.5688 79.5722 16.5688C81.0655 16.5688 82.2808 15.3954 82.2808 13.6907Z" fill="#F7F5F4"/>
<path d="M86.6914 14.1154C86.6914 10.8526 89.0362 8.50781 92.1714 8.50781C95.3066 8.50781 97.6514 10.8526 97.6514 14.1154C97.6514 17.3783 95.3066 19.7231 92.1714 19.7231C89.0362 19.7231 86.6914 17.3554 86.6914 14.1154ZM95.0285 14.1154C95.0285 12.1954 93.7485 10.9173 92.1714 10.9173C90.5943 10.9173 89.2933 12.1973 89.2933 14.1154C89.2933 16.0335 90.5943 17.2926 92.1714 17.2926C93.7485 17.2926 95.0285 16.0354 95.0285 14.1154Z" fill="#F7F5F4"/>
<path d="M99.4628 19.5116V8.72115H101.701L101.914 9.744H102.021C102.448 9.25448 103.514 8.50781 105.133 8.50781C107.608 8.50781 109.398 10.2983 109.398 13.0278V19.5097H106.796V13.3688C106.796 11.9821 105.815 10.9802 104.472 10.9802C103.13 10.9802 102.063 12.0259 102.063 13.3688V19.5097H99.4609L99.4628 19.5116Z" fill="#F7F5F4"/>
<path d="M121.905 19.4122H114.285V18.4156L120.306 10.1316H114.389V9.03125H121.801V10.0278L115.78 18.3118H121.905V19.4122Z" fill="#F7F5F4"/>
<path d="M125.35 19.4083H124.188V4.875H125.35V13.8234L130.499 9.02737H132.036L126.575 14.114L132.243 19.4083H130.707L125.35 14.4047V19.4083Z" fill="#F7F5F4"/>
<path d="M143.237 19.4083H134.102V4.875H143.237V6.05842H135.347V11.4773H142.822V12.6607H135.347V18.2249H143.237V19.4083Z" fill="#F7F5F4"/>
<path d="M152.079 19.4083H150.065L144.812 4.875H146.141L150.854 18.1003H151.29L156.024 4.875H157.332L152.079 19.4083Z" fill="#F7F5F4"/>
<path d="M160.691 19.4083H159.445V4.875H161.833L166.712 18.0173H167.127L172.006 4.875H174.394V19.4083H173.148V6.47366H172.733L167.916 19.4083H165.902L161.106 6.47366H160.691V19.4083Z" fill="#F7F5F4"/>
</g>
<rect x="182.477" width="53" height="30" rx="7.09565" fill="white" fill-opacity="0.07"/>
<path d="M195.471 10.2H199.097C200.03 10.2 200.767 10.424 201.309 10.872C201.85 11.3107 202.121 11.9267 202.121 12.72C202.121 13.1493 201.995 13.5413 201.743 13.896C201.5 14.2413 201.206 14.4887 200.861 14.638C201.374 14.8247 201.785 15.128 202.093 15.548C202.41 15.968 202.569 16.4953 202.569 17.13C202.569 18.0167 202.275 18.7167 201.687 19.23C201.099 19.7433 200.296 20 199.279 20H195.471V10.2ZM199.083 18.712C199.764 18.712 200.273 18.572 200.609 18.292C200.954 18.012 201.127 17.606 201.127 17.074C201.127 16.542 200.954 16.136 200.609 15.856C200.273 15.576 199.764 15.436 199.083 15.436H196.913V18.712H199.083ZM199.027 14.162C199.577 14.162 199.993 14.05 200.273 13.826C200.562 13.5927 200.707 13.2473 200.707 12.79C200.707 12.342 200.562 12.0013 200.273 11.768C199.983 11.5347 199.563 11.418 199.013 11.418H196.913V14.162H199.027ZM203.579 16.43C203.579 15.7673 203.715 15.1653 203.985 14.624C204.256 14.0733 204.648 13.6393 205.161 13.322C205.675 12.9953 206.281 12.832 206.981 12.832C207.681 12.832 208.283 12.986 208.787 13.294C209.291 13.5927 209.674 13.9987 209.935 14.512C210.197 15.016 210.327 15.5713 210.327 16.178C210.327 16.3647 210.318 16.542 210.299 16.71H204.909C204.965 17.382 205.194 17.9233 205.595 18.334C205.997 18.7447 206.505 18.95 207.121 18.95C207.635 18.95 208.055 18.8427 208.381 18.628C208.708 18.4133 208.923 18.1053 209.025 17.704H210.383C210.253 18.432 209.893 19.0153 209.305 19.454C208.717 19.8927 207.989 20.112 207.121 20.112C206.412 20.112 205.787 19.944 205.245 19.608C204.713 19.272 204.303 18.824 204.013 18.264C203.724 17.704 203.579 17.0927 203.579 16.43ZM208.955 15.716C208.909 15.1747 208.713 14.7407 208.367 14.414C208.022 14.0873 207.56 13.924 206.981 13.924C206.431 13.924 205.978 14.078 205.623 14.386C205.278 14.6847 205.054 15.128 204.951 15.716H208.955ZM213.784 10.732V12.944H215.87V14.12H213.784V17.648C213.784 18.0213 213.877 18.3107 214.064 18.516C214.26 18.7213 214.531 18.824 214.876 18.824H215.87V20H214.764C214.045 20 213.476 19.7947 213.056 19.384C212.636 18.9733 212.426 18.4087 212.426 17.69V14.12H210.984V12.944H212.426V10.732H213.784ZM221.261 15.366C221.261 14.9273 221.107 14.5773 220.799 14.316C220.5 14.0547 220.085 13.924 219.553 13.924C219.077 13.924 218.671 14.0547 218.335 14.316C218.008 14.5773 217.836 14.89 217.817 15.254H216.557C216.594 14.7967 216.748 14.386 217.019 14.022C217.29 13.6487 217.649 13.3593 218.097 13.154C218.545 12.9393 219.044 12.832 219.595 12.832C220.192 12.832 220.72 12.944 221.177 13.168C221.634 13.3827 221.989 13.6907 222.241 14.092C222.493 14.484 222.619 14.9367 222.619 15.45V20H221.261V18.852C221.093 19.2347 220.799 19.5427 220.379 19.776C219.968 20 219.497 20.112 218.965 20.112C218.246 20.112 217.668 19.916 217.229 19.524C216.79 19.132 216.571 18.6187 216.571 17.984C216.571 17.312 216.818 16.78 217.313 16.388C217.808 15.9867 218.475 15.786 219.315 15.786H220.785C220.944 15.786 221.06 15.7487 221.135 15.674C221.219 15.5993 221.261 15.4967 221.261 15.366ZM217.915 17.956C217.915 18.2733 218.036 18.5347 218.279 18.74C218.522 18.936 218.839 19.034 219.231 19.034C219.866 19.034 220.36 18.8427 220.715 18.46C221.079 18.0773 221.261 17.5593 221.261 16.906V16.738H219.441C218.974 16.738 218.601 16.85 218.321 17.074C218.05 17.2887 217.915 17.5827 217.915 17.956Z" fill="white"/>
<defs>
<linearGradient id="paint0_linear_7042_143652" x1="-0.00949478" y1="22.9047" x2="25.8858" y2="7.87426" gradientUnits="userSpaceOnUse">
<stop stop-color="#A726C1"/>
<stop offset="0.88" stop-color="#803BDF"/>
<stop offset="1" stop-color="#7B3FE4"/>
</linearGradient>
<clipPath id="clip0_7042_143652">
<rect width="174.476" height="24" fill="white" transform="translate(0 3)"/>
</clipPath>
</defs>
</svg>
